# xmcd CD database file
#
# Track frame offsets:
#	150
#	17752
#	36416
#	53299
#	74790
#	94153
#	116809
#	135292
#	155664
#	176863
#	199372
#	218717
#	240198
#
# Disc length: 3444 seconds
#
# Revision: 0
# Processed by: cddbd v1.5.2PL0 Copyright (c) Steve Scherf et al.
# Submitted via: Feurio! 1.61 - http://www.feurio.com
#
DISCID=b80d720d
DTITLE=Sin Bandera - Mañana
DYEAR=1900
DGENRE=
TTITLE0=Que me alcance la vida
TTITLE1=No voy
TTITLE2=A ti
TTITLE3=Tocame
TTITLE4=Junto a ti
TTITLE5=Lo que llamas amor
TTITLE6=Suelta mi mano
TTITLE7=Como voy a odiarte
TTITLE8=Como tu y como yo
TTITLE9=No, no
TTITLE10=La razon eres tu
TTITLE11=Cuando ya no te esperaba
TTITLE12=Junto a ti
EXTD=
EXTT0=
EXTT1=
EXTT2=
EXTT3=
EXTT4=
EXTT5=
EXTT6=
EXTT7=
EXTT8=
EXTT9=
EXTT10=
EXTT11=
EXTT12=
PLAYORDER=
